<svg xmlns="http://www.w3.org/2000/svg" xmlns:xlink="http://www.w3.org/1999/xlink" width="400" zoomAndPan="magnify" viewBox="0 0 300 299.999988" height="400" preserveAspectRatio="xMidYMid meet" version="1.0"><defs><clipPath id="b4fd1b053f"><path d="M 117.429688 0 L 178.484375 0 L 178.484375 150 L 117.429688 150 Z M 117.429688 0 " clip-rule="nonzero"/></clipPath><clipPath id="e2ae372efb"><path d="M 147.957031 0 L 178.484375 150 L 117.429688 150 Z M 147.957031 0 " clip-rule="nonzero"/></clipPath><clipPath id="d73e139690"><path d="M 117.429688 150 L 178.484375 150 L 178.484375 300 L 117.429688 300 Z M 117.429688 150 " clip-rule="nonzero"/></clipPath><clipPath id="ae3b6a6f63"><path d="M 147.957031 300 L 117.429688 150 L 178.484375 150 Z M 147.957031 300 " clip-rule="nonzero"/></clipPath><clipPath id="e0ce24ee3f"><path d="M 123.257812 122.429688 L 172.660156 122.429688 L 172.660156 171.835938 L 123.257812 171.835938 Z M 123.257812 122.429688 " clip-rule="nonzero"/></clipPath><clipPath id="5c4ee431e2"><path d="M 147.957031 122.429688 C 134.316406 122.429688 123.257812 133.492188 123.257812 147.132812 C 123.257812 160.777344 134.316406 171.835938 147.957031 171.835938 C 161.601562 171.835938 172.660156 160.777344 172.660156 147.132812 C 172.660156 133.492188 161.601562 122.429688 147.957031 122.429688 Z M 147.957031 122.429688 " clip-rule="nonzero"/></clipPath></defs><g clip-path="url(#b4fd1b053f)"><g clip-path="url(#e2ae372efb)"><path fill="#d33835" d="M 117.429688 0 L 178.484375 0 L 178.484375 150.015625 L 117.429688 150.015625 Z M 117.429688 0 " fill-opacity="1" fill-rule="nonzero"/></g></g><g clip-path="url(#d73e139690)"><g clip-path="url(#ae3b6a6f63)"><path fill="#d9d9d9" d="M 178.484375 300 L 117.429688 300 L 117.429688 149.984375 L 178.484375 149.984375 Z M 178.484375 300 " fill-opacity="1" fill-rule="nonzero"/></g></g><g clip-path="url(#e0ce24ee3f)"><g clip-path="url(#5c4ee431e2)"><path fill="#4f4c52" d="M 123.257812 122.429688 L 172.660156 122.429688 L 172.660156 171.835938 L 123.257812 171.835938 Z M 123.257812 122.429688 " fill-opacity="1" fill-rule="nonzero"/></g></g></svg>