<svg xmlns="http://www.w3.org/2000/svg" xmlns:xlink="http://www.w3.org/1999/xlink" width="400" zoomAndPan="magnify" viewBox="0 0 300 299.999988" height="400" preserveAspectRatio="xMidYMid meet" version="1.0"><defs><clipPath id="1ff7f3b283"><path d="M 118.625 5.484375 L 177.292969 5.484375 L 177.292969 150 L 118.625 150 Z M 118.625 5.484375 " clip-rule="nonzero"/></clipPath><clipPath id="f3393f888e"><path d="M 149.304688 6.613281 L 177.140625 143.386719 C 177.46875 145.007812 177.054688 146.691406 176.007812 147.972656 C 174.960938 149.257812 173.390625 150 171.734375 150 L 124.179688 150 C 122.527344 150 120.957031 149.257812 119.910156 147.972656 C 118.863281 146.691406 118.445312 145.007812 118.777344 143.386719 L 146.613281 6.613281 C 146.742188 5.972656 147.304688 5.515625 147.957031 5.515625 C 148.613281 5.515625 149.175781 5.972656 149.304688 6.613281 Z M 149.304688 6.613281 " clip-rule="nonzero"/></clipPath><clipPath id="9696d73e79"><path d="M 118.625 150 L 177.292969 150 L 177.292969 294.515625 L 118.625 294.515625 Z M 118.625 150 " clip-rule="nonzero"/></clipPath><clipPath id="bbbb85431a"><path d="M 146.613281 293.386719 L 118.777344 156.613281 C 118.445312 154.992188 118.863281 153.308594 119.910156 152.027344 C 120.957031 150.742188 122.527344 150 124.179688 150 L 171.734375 150 C 173.390625 150 174.960938 150.742188 176.007812 152.027344 C 177.054688 153.308594 177.46875 154.992188 177.140625 156.613281 L 149.304688 293.386719 C 149.175781 294.027344 148.613281 294.484375 147.957031 294.484375 C 147.304688 294.484375 146.742188 294.027344 146.613281 293.386719 Z M 146.613281 293.386719 " clip-rule="nonzero"/></clipPath><clipPath id="24d177d50c"><path d="M 123.257812 122.429688 L 172.660156 122.429688 L 172.660156 171.835938 L 123.257812 171.835938 Z M 123.257812 122.429688 " clip-rule="nonzero"/></clipPath><clipPath id="cdef863f4e"><path d="M 147.957031 122.429688 C 134.316406 122.429688 123.257812 133.492188 123.257812 147.132812 C 123.257812 160.777344 134.316406 171.835938 147.957031 171.835938 C 161.601562 171.835938 172.660156 160.777344 172.660156 147.132812 C 172.660156 133.492188 161.601562 122.429688 147.957031 122.429688 Z M 147.957031 122.429688 " clip-rule="nonzero"/></clipPath></defs><g clip-path="url(#1ff7f3b283)"><g clip-path="url(#f3393f888e)"><path fill="#d33835" d="M 117.429688 0 L 178.484375 0 L 178.484375 150.015625 L 117.429688 150.015625 Z M 117.429688 0 " fill-opacity="1" fill-rule="nonzero"/></g></g><g clip-path="url(#9696d73e79)"><g clip-path="url(#bbbb85431a)"><path fill="#4f4c52" d="M 178.484375 300 L 117.429688 300 L 117.429688 149.984375 L 178.484375 149.984375 Z M 178.484375 300 " fill-opacity="1" fill-rule="nonzero"/></g></g><g clip-path="url(#24d177d50c)"><g clip-path="url(#cdef863f4e)"><path fill="#e5e5e5" d="M 123.257812 122.429688 L 172.660156 122.429688 L 172.660156 171.835938 L 123.257812 171.835938 Z M 123.257812 122.429688 " fill-opacity="1" fill-rule="nonzero"/></g></g></svg>