<svg xmlns="http://www.w3.org/2000/svg" xmlns:xlink="http://www.w3.org/1999/xlink" width="850" zoomAndPan="magnify" viewBox="0 0 637.5 637.499985" height="850" preserveAspectRatio="xMidYMid meet" version="1.0"><defs><clipPath id="edddd60210"><path d="M 145 5 L 491.851562 5 L 491.851562 632 L 145 632 Z M 145 5 " clip-rule="nonzero"/></clipPath></defs><g clip-path="url(#edddd60210)"><path fill="#ffffff" d="M 490.257812 411.5 L 328.496094 12.488281 C 328.25 12.023438 327.972656 11.578125 327.65625 11.152344 C 327.371094 10.589844 327.039062 10.054688 326.664062 9.546875 C 326.148438 9.003906 325.585938 8.515625 324.96875 8.089844 C 324.628906 7.785156 324.269531 7.503906 323.890625 7.25 C 323.121094 6.835938 322.3125 6.523438 321.464844 6.3125 C 321.167969 6.175781 320.863281 6.058594 320.546875 5.964844 L 320.441406 5.964844 C 319.144531 5.921875 317.851562 5.921875 316.558594 5.964844 L 316.441406 5.964844 C 316.125 6.058594 315.820312 6.175781 315.523438 6.3125 C 314.675781 6.523438 313.867188 6.835938 313.097656 7.25 C 312.71875 7.503906 312.359375 7.785156 312.019531 8.089844 C 311.402344 8.515625 310.839844 9.003906 310.324219 9.546875 C 309.949219 10.054688 309.617188 10.589844 309.332031 11.152344 C 309.015625 11.578125 308.738281 12.023438 308.492188 12.488281 L 146.730469 411.5 C 146.3125 412.527344 146.058594 413.597656 145.96875 414.703125 C 145.878906 415.808594 145.957031 416.90625 146.207031 417.988281 C 146.457031 419.070312 146.863281 420.089844 147.425781 421.042969 C 147.988281 422 148.683594 422.851562 149.507812 423.59375 C 150.335938 424.335938 151.253906 424.933594 152.265625 425.394531 C 153.277344 425.851562 154.332031 426.148438 155.433594 426.277344 C 156.539062 426.410156 157.632812 426.375 158.726562 426.167969 C 159.816406 425.960938 160.851562 425.59375 161.828125 425.066406 L 277.066406 363.597656 C 279.007812 365.941406 281.132812 368.105469 283.441406 370.089844 C 285.75 372.074219 288.207031 373.851562 290.820312 375.417969 C 293.429688 376.984375 296.152344 378.320312 298.988281 379.421875 C 301.824219 380.527344 304.734375 381.386719 307.714844 381.996094 L 307.714844 546.496094 C 306.878906 546.710938 306.046875 546.953125 305.222656 547.21875 C 304.398438 547.488281 303.585938 547.777344 302.777344 548.09375 C 301.972656 548.410156 301.175781 548.75 300.390625 549.113281 C 299.605469 549.476562 298.832031 549.863281 298.066406 550.273438 C 297.304688 550.679688 296.554688 551.113281 295.820312 551.570312 C 295.082031 552.023438 294.363281 552.5 293.652344 553 C 292.945312 553.5 292.253906 554.019531 291.578125 554.558594 C 290.902344 555.097656 290.242188 555.660156 289.597656 556.238281 C 288.957031 556.820312 288.332031 557.417969 287.726562 558.035156 C 287.117188 558.652344 286.53125 559.289062 285.964844 559.941406 C 285.394531 560.59375 284.847656 561.261719 284.320312 561.949219 C 283.789062 562.632812 283.285156 563.335938 282.796875 564.050781 C 282.3125 564.769531 281.847656 565.5 281.40625 566.242188 C 280.964844 566.988281 280.546875 567.746094 280.148438 568.515625 C 279.753906 569.285156 279.378906 570.066406 279.03125 570.855469 C 278.679688 571.648438 278.355469 572.449219 278.054688 573.261719 C 277.753906 574.074219 277.476562 574.894531 277.226562 575.722656 C 276.972656 576.550781 276.746094 577.386719 276.546875 578.226562 C 276.34375 579.070312 276.167969 579.917969 276.019531 580.769531 C 275.867188 581.621094 275.742188 582.476562 275.644531 583.339844 C 275.546875 584.199219 275.472656 585.058594 275.425781 585.925781 C 275.378906 586.789062 275.359375 587.652344 275.363281 588.519531 C 275.367188 589.386719 275.398438 590.25 275.457031 591.113281 C 275.515625 591.976562 275.597656 592.839844 275.707031 593.699219 C 275.816406 594.554688 275.949219 595.410156 276.109375 596.261719 C 276.273438 597.113281 276.457031 597.957031 276.667969 598.796875 C 276.878906 599.636719 277.117188 600.46875 277.378906 601.292969 C 277.640625 602.121094 277.925781 602.9375 278.238281 603.742188 C 278.546875 604.550781 278.882812 605.351562 279.242188 606.136719 C 279.601562 606.925781 279.980469 607.703125 280.386719 608.464844 C 280.792969 609.230469 281.222656 609.984375 281.671875 610.722656 C 282.121094 611.460938 282.59375 612.1875 283.089844 612.898438 C 283.582031 613.609375 284.097656 614.300781 284.636719 614.980469 C 285.171875 615.660156 285.726562 616.324219 286.304688 616.972656 C 286.878906 617.617188 287.472656 618.246094 288.089844 618.855469 C 288.703125 619.464844 289.335938 620.058594 289.984375 620.628906 C 290.632812 621.203125 291.300781 621.753906 291.980469 622.285156 C 292.664062 622.816406 293.363281 623.328125 294.078125 623.820312 C 294.789062 624.308594 295.519531 624.777344 296.257812 625.222656 C 297 625.671875 297.753906 626.09375 298.523438 626.496094 C 299.289062 626.894531 300.070312 627.273438 300.859375 627.625 C 301.648438 627.980469 302.449219 628.3125 303.257812 628.617188 C 304.066406 628.921875 304.886719 629.203125 305.714844 629.460938 C 306.539062 629.71875 307.375 629.949219 308.214844 630.15625 C 309.054688 630.359375 309.902344 630.542969 310.753906 630.699219 C 311.605469 630.851562 312.460938 630.984375 313.320312 631.085938 C 314.179688 631.191406 315.039062 631.269531 315.90625 631.320312 C 316.769531 631.371094 317.632812 631.398438 318.5 631.398438 C 319.363281 631.398438 320.230469 631.371094 321.09375 631.320312 C 321.957031 631.269531 322.820312 631.191406 323.679688 631.085938 C 324.539062 630.984375 325.394531 630.851562 326.246094 630.699219 C 327.097656 630.542969 327.941406 630.359375 328.785156 630.15625 C 329.625 629.949219 330.457031 629.71875 331.285156 629.460938 C 332.113281 629.203125 332.929688 628.921875 333.738281 628.617188 C 334.550781 628.3125 335.351562 627.980469 336.140625 627.625 C 336.929688 627.273438 337.707031 626.894531 338.476562 626.496094 C 339.242188 626.09375 339.996094 625.671875 340.738281 625.222656 C 341.480469 624.777344 342.207031 624.308594 342.921875 623.820312 C 343.636719 623.328125 344.332031 622.816406 345.015625 622.285156 C 345.699219 621.753906 346.367188 621.203125 347.015625 620.628906 C 347.664062 620.058594 348.296875 619.464844 348.910156 618.855469 C 349.523438 618.246094 350.117188 617.617188 350.695312 616.972656 C 351.269531 616.324219 351.828125 615.660156 352.363281 614.980469 C 352.898438 614.300781 353.414062 613.609375 353.910156 612.898438 C 354.402344 612.1875 354.875 611.460938 355.328125 610.722656 C 355.777344 609.984375 356.207031 609.230469 356.613281 608.464844 C 357.015625 607.703125 357.398438 606.925781 357.757812 606.136719 C 358.117188 605.351562 358.449219 604.550781 358.761719 603.742188 C 359.074219 602.9375 359.359375 602.121094 359.621094 601.292969 C 359.882812 600.46875 360.117188 599.636719 360.328125 598.796875 C 360.539062 597.957031 360.726562 597.113281 360.886719 596.261719 C 361.046875 595.410156 361.183594 594.554688 361.292969 593.699219 C 361.402344 592.839844 361.484375 591.976562 361.542969 591.113281 C 361.597656 590.25 361.628906 589.386719 361.636719 588.519531 C 361.640625 587.652344 361.617188 586.789062 361.570312 585.925781 C 361.523438 585.058594 361.453125 584.199219 361.355469 583.339844 C 361.253906 582.476562 361.128906 581.621094 360.980469 580.769531 C 360.828125 579.917969 360.652344 579.070312 360.453125 578.226562 C 360.25 577.386719 360.023438 576.550781 359.773438 575.722656 C 359.519531 574.894531 359.246094 574.074219 358.945312 573.261719 C 358.644531 572.449219 358.316406 571.648438 357.96875 570.855469 C 357.617188 570.066406 357.246094 569.285156 356.851562 568.515625 C 356.453125 567.746094 356.035156 566.988281 355.59375 566.242188 C 355.152344 565.5 354.6875 564.769531 354.199219 564.050781 C 353.714844 563.335938 353.207031 562.632812 352.679688 561.949219 C 352.152344 561.261719 351.605469 560.59375 351.035156 559.941406 C 350.46875 559.289062 349.878906 558.652344 349.273438 558.035156 C 348.667969 557.417969 348.042969 556.820312 347.398438 556.238281 C 346.757812 555.660156 346.097656 555.097656 345.421875 554.558594 C 344.746094 554.019531 344.050781 553.5 343.34375 553 C 342.636719 552.5 341.914062 552.023438 341.179688 551.570312 C 340.441406 551.113281 339.691406 550.679688 338.929688 550.273438 C 338.167969 549.863281 337.394531 549.476562 336.609375 549.113281 C 335.824219 548.75 335.027344 548.410156 334.222656 548.09375 C 333.414062 547.777344 332.601562 547.488281 331.777344 547.21875 C 330.953125 546.953125 330.121094 546.710938 329.285156 546.496094 L 329.285156 381.996094 C 332.265625 381.382812 335.175781 380.527344 338.015625 379.417969 C 340.851562 378.3125 343.578125 376.976562 346.1875 375.410156 C 348.800781 373.839844 351.257812 372.0625 353.566406 370.078125 C 355.875 368.089844 358 365.921875 359.941406 363.578125 L 475.179688 425.046875 C 476.160156 425.570312 477.191406 425.9375 478.285156 426.144531 C 479.375 426.351562 480.472656 426.390625 481.574219 426.257812 C 482.675781 426.125 483.734375 425.832031 484.746094 425.371094 C 485.753906 424.914062 486.675781 424.3125 487.5 423.570312 C 488.328125 422.828125 489.019531 421.980469 489.585938 421.023438 C 490.148438 420.066406 490.554688 419.046875 490.800781 417.964844 C 491.050781 416.882812 491.132812 415.789062 491.042969 414.679688 C 490.953125 413.574219 490.699219 412.507812 490.277344 411.480469 Z M 177.90625 392.089844 L 307.714844 71.84375 L 307.714844 276.441406 C 307.519531 276.441406 307.347656 276.570312 307.15625 276.613281 C 304.078125 277.28125 301.082031 278.210938 298.171875 279.40625 C 297.09375 279.828125 296.1875 280.398438 295.183594 280.882812 C 293.21875 281.808594 291.3125 282.847656 289.46875 284 C 288.390625 284.691406 287.410156 285.476562 286.382812 286.234375 C 284.78125 287.425781 283.242188 288.699219 281.769531 290.050781 C 280.808594 290.957031 279.914062 291.894531 279.019531 292.867188 C 277.679688 294.308594 276.429688 295.828125 275.265625 297.417969 C 274.480469 298.496094 273.722656 299.574219 273.011719 300.652344 C 271.949219 302.371094 270.984375 304.148438 270.121094 305.980469 C 269.5625 307.132812 268.980469 308.242188 268.503906 309.429688 C 267.710938 311.527344 267.042969 313.667969 266.507812 315.847656 C 266.230469 316.925781 265.863281 317.925781 265.648438 319.027344 C 264.960938 322.410156 264.601562 325.828125 264.578125 329.28125 C 264.59375 331.707031 264.769531 334.117188 265.105469 336.519531 C 265.203125 337.285156 265.386719 338.039062 265.527344 338.804688 C 265.820312 340.421875 266.144531 342.039062 266.605469 343.613281 C 266.691406 343.9375 266.726562 344.285156 266.820312 344.605469 Z M 340.066406 588.101562 C 340.066406 588.808594 340.03125 589.511719 339.964844 590.214844 C 339.894531 590.917969 339.789062 591.617188 339.652344 592.308594 C 339.515625 593 339.34375 593.6875 339.140625 594.363281 C 338.933594 595.039062 338.695312 595.703125 338.425781 596.355469 C 338.15625 597.007812 337.855469 597.644531 337.519531 598.269531 C 337.1875 598.890625 336.824219 599.496094 336.433594 600.082031 C 336.039062 600.671875 335.621094 601.238281 335.171875 601.785156 C 334.722656 602.328125 334.25 602.851562 333.75 603.351562 C 333.25 603.851562 332.726562 604.324219 332.183594 604.773438 C 331.636719 605.222656 331.070312 605.640625 330.480469 606.035156 C 329.894531 606.425781 329.289062 606.789062 328.667969 607.121094 C 328.042969 607.457031 327.40625 607.757812 326.753906 608.027344 C 326.101562 608.296875 325.4375 608.535156 324.761719 608.738281 C 324.085938 608.945312 323.398438 609.117188 322.707031 609.253906 C 322.015625 609.390625 321.316406 609.496094 320.613281 609.566406 C 319.910156 609.632812 319.207031 609.667969 318.5 609.667969 C 317.792969 609.667969 317.089844 609.632812 316.386719 609.566406 C 315.683594 609.496094 314.984375 609.390625 314.292969 609.253906 C 313.597656 609.117188 312.914062 608.945312 312.238281 608.742188 C 311.5625 608.535156 310.898438 608.296875 310.246094 608.027344 C 309.59375 607.757812 308.957031 607.457031 308.332031 607.121094 C 307.710938 606.789062 307.105469 606.425781 306.515625 606.035156 C 305.929688 605.640625 305.363281 605.222656 304.816406 604.773438 C 304.269531 604.324219 303.746094 603.851562 303.25 603.351562 C 302.75 602.851562 302.273438 602.328125 301.828125 601.785156 C 301.378906 601.238281 300.957031 600.671875 300.566406 600.082031 C 300.171875 599.496094 299.8125 598.890625 299.476562 598.269531 C 299.144531 597.644531 298.84375 597.007812 298.574219 596.355469 C 298.300781 595.703125 298.066406 595.039062 297.859375 594.363281 C 297.65625 593.6875 297.484375 593 297.34375 592.308594 C 297.207031 591.617188 297.105469 590.917969 297.035156 590.214844 C 296.964844 589.511719 296.929688 588.808594 296.929688 588.101562 C 296.929688 587.394531 296.964844 586.691406 297.035156 585.988281 C 297.105469 585.285156 297.207031 584.585938 297.34375 583.894531 C 297.484375 583.199219 297.65625 582.515625 297.859375 581.839844 C 298.066406 581.164062 298.300781 580.5 298.574219 579.847656 C 298.84375 579.195312 299.144531 578.554688 299.476562 577.933594 C 299.8125 577.3125 300.171875 576.707031 300.566406 576.117188 C 300.957031 575.53125 301.378906 574.964844 301.828125 574.417969 C 302.273438 573.871094 302.75 573.347656 303.25 572.851562 C 303.746094 572.351562 304.269531 571.875 304.816406 571.429688 C 305.363281 570.980469 305.929688 570.558594 306.515625 570.167969 C 307.105469 569.773438 307.710938 569.414062 308.332031 569.078125 C 308.957031 568.746094 309.59375 568.445312 310.246094 568.175781 C 310.898438 567.902344 311.5625 567.667969 312.238281 567.460938 C 312.914062 567.257812 313.597656 567.085938 314.292969 566.945312 C 314.984375 566.808594 315.683594 566.707031 316.386719 566.636719 C 317.089844 566.566406 317.792969 566.53125 318.5 566.53125 C 319.207031 566.53125 319.910156 566.566406 320.613281 566.636719 C 321.316406 566.707031 322.015625 566.808594 322.707031 566.945312 C 323.398438 567.085938 324.085938 567.257812 324.761719 567.460938 C 325.4375 567.667969 326.101562 567.902344 326.753906 568.175781 C 327.40625 568.445312 328.042969 568.746094 328.667969 569.078125 C 329.289062 569.414062 329.894531 569.773438 330.480469 570.167969 C 331.070312 570.558594 331.636719 570.980469 332.183594 571.429688 C 332.726562 571.875 333.25 572.351562 333.75 572.851562 C 334.25 573.347656 334.722656 573.871094 335.171875 574.417969 C 335.621094 574.964844 336.039062 575.53125 336.433594 576.117188 C 336.824219 576.707031 337.1875 577.3125 337.519531 577.933594 C 337.855469 578.554688 338.15625 579.195312 338.425781 579.847656 C 338.695312 580.5 338.933594 581.164062 339.140625 581.839844 C 339.34375 582.515625 339.515625 583.199219 339.652344 583.894531 C 339.789062 584.585938 339.894531 585.285156 339.964844 585.988281 C 340.03125 586.691406 340.066406 587.394531 340.066406 588.101562 Z M 318.5 361.636719 C 317.328125 361.636719 316.164062 361.574219 315 361.449219 C 313.835938 361.320312 312.683594 361.132812 311.542969 360.882812 C 310.398438 360.632812 309.273438 360.320312 308.164062 359.945312 C 307.058594 359.574219 305.972656 359.140625 304.910156 358.652344 C 303.847656 358.160156 302.816406 357.613281 301.8125 357.011719 C 300.8125 356.410156 299.84375 355.753906 298.914062 355.046875 C 297.980469 354.339844 297.089844 353.582031 296.242188 352.777344 C 295.390625 351.972656 294.589844 351.125 293.832031 350.234375 C 293.074219 349.34375 292.367188 348.414062 291.710938 347.445312 C 291.054688 346.480469 290.449219 345.476562 289.902344 344.445312 C 289.355469 343.410156 288.863281 342.351562 288.429688 341.265625 C 287.996094 340.179688 287.625 339.074219 287.3125 337.945312 C 286.996094 336.820312 286.746094 335.679688 286.558594 334.523438 C 286.367188 333.371094 286.242188 332.207031 286.175781 331.039062 C 286.113281 329.871094 286.113281 328.703125 286.175781 327.535156 C 286.238281 326.367188 286.367188 325.207031 286.554688 324.054688 C 286.746094 322.898438 286.996094 321.757812 287.308594 320.632812 C 287.621094 319.503906 287.992188 318.398438 288.425781 317.3125 C 288.859375 316.222656 289.351562 315.164062 289.898438 314.128906 C 290.445312 313.097656 291.046875 312.097656 291.703125 311.128906 C 292.359375 310.160156 293.066406 309.230469 293.824219 308.339844 C 294.582031 307.449219 295.382812 306.597656 296.234375 305.796875 C 297.082031 304.992188 297.972656 304.234375 298.90625 303.527344 C 299.835938 302.820312 300.800781 302.164062 301.804688 301.5625 C 302.808594 300.957031 303.839844 300.410156 304.902344 299.917969 C 305.960938 299.429688 307.046875 298.996094 308.15625 298.625 C 309.265625 298.25 310.390625 297.9375 311.53125 297.6875 C 312.675781 297.433594 313.828125 297.246094 314.988281 297.121094 C 316.152344 296.992188 317.320312 296.929688 318.488281 296.929688 C 319.65625 296.929688 320.824219 296.996094 321.988281 297.121094 C 323.148438 297.246094 324.300781 297.4375 325.445312 297.6875 C 326.585938 297.941406 327.710938 298.253906 328.820312 298.628906 C 329.929688 299 331.011719 299.433594 332.074219 299.925781 C 333.136719 300.417969 334.167969 300.964844 335.171875 301.566406 C 336.171875 302.171875 337.140625 302.828125 338.070312 303.535156 C 339 304.242188 339.890625 305 340.738281 305.804688 C 341.589844 306.609375 342.390625 307.457031 343.148438 308.347656 C 343.90625 309.238281 344.609375 310.171875 345.265625 311.136719 C 345.921875 312.105469 346.523438 313.109375 347.074219 314.140625 C 347.621094 315.175781 348.109375 316.234375 348.542969 317.324219 C 348.972656 318.410156 349.347656 319.515625 349.660156 320.644531 C 349.972656 321.769531 350.222656 322.910156 350.410156 324.066406 C 350.597656 325.21875 350.726562 326.382812 350.789062 327.550781 C 350.851562 328.71875 350.851562 329.886719 350.785156 331.054688 C 350.722656 332.222656 350.59375 333.382812 350.40625 334.535156 C 350.214844 335.691406 349.964844 336.832031 349.648438 337.957031 C 349.335938 339.085938 348.960938 340.191406 348.527344 341.277344 C 348.09375 342.363281 347.605469 343.421875 347.054688 344.457031 C 346.371094 345.746094 345.601562 346.984375 344.75 348.171875 C 343.894531 349.355469 342.964844 350.480469 341.960938 351.539062 C 340.957031 352.601562 339.882812 353.589844 338.746094 354.503906 C 337.605469 355.417969 336.410156 356.253906 335.160156 357.003906 C 333.90625 357.757812 332.609375 358.425781 331.269531 359 C 329.925781 359.578125 328.550781 360.0625 327.144531 360.453125 C 325.738281 360.84375 324.308594 361.140625 322.863281 361.335938 C 321.414062 361.535156 319.960938 361.632812 318.5 361.636719 Z M 370.199219 344.605469 C 370.296875 344.285156 370.328125 343.9375 370.414062 343.613281 C 370.855469 342.03125 371.179688 340.378906 371.492188 338.792969 C 371.632812 338.039062 371.816406 337.285156 371.914062 336.519531 C 372.25 334.117188 372.417969 331.707031 372.417969 329.28125 C 372.390625 325.832031 372.03125 322.417969 371.339844 319.039062 C 371.125 317.960938 370.757812 316.882812 370.480469 315.855469 C 369.949219 313.675781 369.285156 311.539062 368.484375 309.441406 C 368.007812 308.253906 367.40625 307.144531 366.875 306 C 366.007812 304.152344 365.039062 302.351562 363.976562 300.609375 C 363.265625 299.53125 362.507812 298.453125 361.722656 297.371094 C 360.558594 295.78125 359.308594 294.265625 357.96875 292.820312 C 357.074219 291.851562 356.179688 290.914062 355.21875 290.007812 C 353.746094 288.652344 352.203125 287.378906 350.59375 286.191406 C 349.578125 285.433594 348.597656 284.648438 347.519531 283.957031 C 345.675781 282.804688 343.769531 281.765625 341.804688 280.839844 C 340.800781 280.355469 339.851562 279.761719 338.816406 279.363281 C 335.902344 278.167969 332.910156 277.238281 329.832031 276.570312 C 329.640625 276.570312 329.464844 276.441406 329.273438 276.398438 L 329.273438 71.84375 L 459.089844 392.035156 Z M 370.199219 344.605469 " fill-opacity="1" fill-rule="nonzero"/></g></svg>